<?xml version="1.0" encoding="UTF-8" standalone="no"?>
<!DOCTYPE svg PUBLIC "-//W3C//DTD SVG 1.1//EN" "http://www.w3.org/Graphics/SVG/1.1/DTD/svg11.dtd">
<svg width="456" height="456" viewBox="0 0 456 456" fill="none" xmlns="http://www.w3.org/2000/svg">
	<g filter="url(#filter0_di_0_1)">
		<path d="M236.638 394.5C214.138 394.5 194.338 390.3 177.238 381.9C160.438 373.5 147.238 361.65 137.638 346.35C128.338 331.05 123.688 313.35 123.688 293.25V288.75H97.5879V246H123.688V210H97.5879V167.25H123.688V162.75C123.688 142.35 128.338 124.65 137.638 109.65C147.238 94.35 160.588 82.5 177.688 74.1C194.788 65.7 214.588 61.5 237.088 61.5C259.588 61.5 279.238 65.7 296.038 74.1C313.138 82.5 326.338 94.35 335.638 109.65C344.938 124.65 349.588 142.35 349.588 162.75H282.088C282.088 149.85 278.038 139.95 269.938 133.05C262.138 125.85 251.188 122.25 237.088 122.25C222.688 122.25 211.438 125.85 203.338 133.05C195.238 139.95 191.188 149.85 191.188 162.75V167.25H257.338V210H191.188V246H257.338V288.75H191.188V293.25C191.188 306.15 195.088 316.2 202.888 323.4C210.988 330.3 222.238 333.75 236.638 333.75C250.738 333.75 261.838 330.3 269.938 323.4C278.038 316.2 282.088 306.15 282.088 293.25H349.588C349.588 313.35 344.788 331.05 335.188 346.35C325.888 361.65 312.838 373.5 296.038 381.9C279.238 390.3 259.438 394.5 236.638 394.5Z" fill="#FFB545"/>
	</g>
	<defs>
		<filter id="filter0_di_0_1" x="93.5879" y="61.5" width="260" height="352" filterUnits="userSpaceOnUse" color-interpolation-filters="sRGB">
			<feFlood flood-opacity="0" result="BackgroundImageFix"/>
			<feColorMatrix in="SourceAlpha" type="matrix" values="0 0 0 0 0 0 0 0 0 0 0 0 0 0 0 0 0 0 127 0" result="hardAlpha"/>
			<feOffset dy="15"/>
			<feGaussianBlur stdDeviation="2"/>
			<feComposite in2="hardAlpha" operator="out"/>
			<feColorMatrix type="matrix" values="0 0 0 0 0 0 0 0 0 0 0 0 0 0 0 0 0 0 0.25 0"/>
			<feBlend mode="normal" in2="BackgroundImageFix" result="effect1_dropShadow_0_1"/>
			<feBlend mode="normal" in="SourceGraphic" in2="effect1_dropShadow_0_1" result="shape"/>
			<feColorMatrix in="SourceAlpha" type="matrix" values="0 0 0 0 0 0 0 0 0 0 0 0 0 0 0 0 0 0 127 0" result="hardAlpha"/>
			<feOffset dy="8"/>
			<feGaussianBlur stdDeviation="2"/>
			<feComposite in2="hardAlpha" operator="arithmetic" k2="-1" k3="1"/>
			<feColorMatrix type="matrix" values="0 0 0 0 0 0 0 0 0 0 0 0 0 0 0 0 0 0 0.25 0"/>
			<feBlend mode="plus-darker" in2="shape" result="effect2_innerShadow_0_1"/>
		</filter>
	</defs>
</svg>

