<?xml version="1.0" encoding="UTF-8" standalone="no"?>
<!DOCTYPE svg PUBLIC "-//W3C//DTD SVG 1.1//EN" "http://www.w3.org/Graphics/SVG/1.1/DTD/svg11.dtd">
<svg width="456" height="456" viewBox="0 0 456 456" fill="none" xmlns="http://www.w3.org/2000/svg">
	<g filter="url(#filter0_d_0_1)">
		<path d="M88.1468 166.781C89.0449 164.017 92.9551 164.017 93.8532 166.781L106.042 204.296C106.444 205.532 107.596 206.369 108.896 206.369L148.341 206.369C151.247 206.369 152.455 210.088 150.104 211.796L118.192 234.981C117.141 235.745 116.701 237.099 117.103 238.335L129.292 275.85C130.19 278.614 127.026 280.912 124.675 279.204L92.7634 256.019C91.7119 255.255 90.2881 255.255 89.2366 256.019L57.3247 279.204C54.9736 280.912 51.8101 278.614 52.7082 275.85L64.8975 238.335C65.2991 237.099 64.8591 235.745 63.8077 234.981L31.8957 211.796C29.5446 210.088 30.7529 206.369 33.6591 206.369L73.1044 206.369C74.4041 206.369 75.5559 205.532 75.9576 204.296L88.1468 166.781Z" fill="#FFB300"/>
	</g>
	<g filter="url(#filter1_d_0_1)">
		<path d="M191.463 262C189.543 262 187.911 261.328 186.567 259.984C185.223 258.64 184.551 257.008 184.551 255.088V239.824H177.255L179.271 230.896H184.551V227.152H177.255L179.271 218.224H184.551V201.712C184.551 199.792 185.223 198.16 186.567 196.816C187.911 195.472 189.543 194.8 191.463 194.8H213.255C215.175 194.8 216.807 195.472 218.151 196.816C219.495 198.16 220.167 199.792 220.167 201.712V210.16L211.239 212.176V207.088C211.239 206.128 210.887 205.328 210.183 204.688C209.543 203.984 208.743 203.632 207.783 203.632H196.935C195.975 203.632 195.143 203.984 194.439 204.688C193.799 205.328 193.479 206.128 193.479 207.088V218.224H209.223L207.207 227.152H193.479V230.896H209.223L207.207 239.824H193.479V249.616C193.479 250.576 193.799 251.408 194.439 252.112C195.143 252.752 195.975 253.072 196.935 253.072H207.783C208.743 253.072 209.543 252.752 210.183 252.112C210.887 251.408 211.239 250.576 211.239 249.616V246.64L220.167 244.624V255.088C220.167 257.008 219.495 258.64 218.151 259.984C216.807 261.328 215.175 262 213.255 262H191.463ZM234.817 262C232.833 262 231.169 261.328 229.825 259.984C228.481 258.64 227.809 256.976 227.809 254.992V214H236.833V249.52C236.833 250.416 237.185 251.216 237.889 251.92C238.593 252.624 239.393 252.976 240.289 252.976H245.857V214H254.881V262H234.817ZM262.59 262V214H282.654C284.574 214 286.206 214.704 287.55 216.112C288.958 217.456 289.662 219.088 289.662 221.008V231.472L280.638 229.456V226.576C280.638 225.616 280.286 224.784 279.582 224.08C278.942 223.376 278.142 223.024 277.182 223.024H271.614V262H262.59ZM300.741 262C298.757 262 297.093 261.328 295.749 259.984C294.405 258.576 293.733 256.912 293.733 254.992V221.008C293.733 219.088 294.405 217.456 295.749 216.112C297.093 214.704 298.757 214 300.741 214H313.797C315.717 214 317.349 214.704 318.693 216.112C320.037 217.456 320.709 219.088 320.709 221.008V254.992C320.709 256.912 320.037 258.576 318.693 259.984C317.349 261.328 315.717 262 313.797 262H300.741ZM306.213 252.976H308.229C309.189 252.976 310.021 252.656 310.725 252.016C311.429 251.312 311.781 250.48 311.781 249.52V226.48C311.781 225.52 311.429 224.72 310.725 224.08C310.021 223.376 309.189 223.024 308.229 223.024H306.213C305.253 223.024 304.421 223.376 303.717 224.08C303.077 224.72 302.757 225.52 302.757 226.48V249.52C302.757 250.48 303.077 251.312 303.717 252.016C304.421 252.656 305.253 252.976 306.213 252.976ZM337.52 262C335.6 262 333.968 261.328 332.624 259.984C331.28 258.64 330.608 257.008 330.608 255.088V201.616C330.608 199.76 331.28 198.16 332.624 196.816C333.968 195.472 335.6 194.8 337.52 194.8H359.312C361.232 194.8 362.864 195.472 364.208 196.816C365.552 198.16 366.224 199.76 366.224 201.616V216.592L357.296 214.576V207.088C357.296 206.128 356.944 205.328 356.24 204.688C355.6 203.984 354.8 203.632 353.84 203.632H342.992C342.032 203.632 341.2 203.984 340.496 204.688C339.856 205.328 339.536 206.128 339.536 207.088V249.616C339.536 250.576 339.856 251.408 340.496 252.112C341.2 252.752 342.032 253.072 342.992 253.072H353.84C354.8 253.072 355.6 252.752 356.24 252.112C356.944 251.408 357.296 250.576 357.296 249.616V240.304H348.464L350.48 231.376H366.224V255.088C366.224 257.008 365.552 258.64 364.208 259.984C362.864 261.328 361.232 262 359.312 262H337.52ZM379.192 262C377.272 262 375.608 261.328 374.2 259.984C372.856 258.576 372.184 256.912 372.184 254.992V220.912C372.184 218.992 372.856 217.36 374.2 216.016C375.608 214.672 377.272 214 379.192 214H392.248C394.232 214 395.896 214.672 397.24 216.016C398.584 217.36 399.256 218.992 399.256 220.912V235.504C399.256 237.424 398.584 239.088 397.24 240.496C395.896 241.84 394.232 242.512 392.248 242.512H381.208V249.52C381.208 250.48 381.528 251.312 382.168 252.016C382.872 252.656 383.736 252.976 384.76 252.976H397.24L399.256 262H379.192ZM381.208 233.488H386.776C387.736 233.488 388.536 233.168 389.176 232.528C389.88 231.824 390.232 230.992 390.232 230.032V226.48C390.232 225.52 389.88 224.72 389.176 224.08C388.536 223.376 387.736 223.024 386.776 223.024H384.76C383.736 223.024 382.872 223.376 382.168 224.08C381.528 224.72 381.208 225.52 381.208 226.48V233.488ZM405.403 262V214H425.467C427.323 214 428.955 214.672 430.363 216.016C431.771 217.36 432.475 218.992 432.475 220.912V262H423.451V226.48C423.451 225.456 423.099 224.624 422.395 223.984C421.691 223.344 420.891 223.024 419.995 223.024H414.427V262H405.403Z" fill="white"/>
	</g>
	<defs>
		<filter id="filter0_d_0_1" x="28.6533" y="164.708" width="124.693" height="123.083" filterUnits="userSpaceOnUse" color-interpolation-filters="sRGB">
			<feFlood flood-opacity="0" result="BackgroundImageFix"/>
			<feColorMatrix in="SourceAlpha" type="matrix" values="0 0 0 0 0 0 0 0 0 0 0 0 0 0 0 0 0 0 127 0" result="hardAlpha"/>
			<feOffset dy="6"/>
			<feGaussianBlur stdDeviation="1"/>
			<feComposite in2="hardAlpha" operator="out"/>
			<feColorMatrix type="matrix" values="0 0 0 0 0 0 0 0 0 0 0 0 0 0 0 0 0 0 0.25 0"/>
			<feBlend mode="normal" in2="BackgroundImageFix" result="effect1_dropShadow_0_1"/>
			<feBlend mode="normal" in="SourceGraphic" in2="effect1_dropShadow_0_1" result="shape"/>
		</filter>
		<filter id="filter1_d_0_1" x="175.255" y="194.8" width="259.22" height="75.2" filterUnits="userSpaceOnUse" color-interpolation-filters="sRGB">
			<feFlood flood-opacity="0" result="BackgroundImageFix"/>
			<feColorMatrix in="SourceAlpha" type="matrix" values="0 0 0 0 0 0 0 0 0 0 0 0 0 0 0 0 0 0 127 0" result="hardAlpha"/>
			<feOffset dy="6"/>
			<feGaussianBlur stdDeviation="1"/>
			<feComposite in2="hardAlpha" operator="out"/>
			<feColorMatrix type="matrix" values="0 0 0 0 0 0 0 0 0 0 0 0 0 0 0 0 0 0 0.25 0"/>
			<feBlend mode="normal" in2="BackgroundImageFix" result="effect1_dropShadow_0_1"/>
			<feBlend mode="normal" in="SourceGraphic" in2="effect1_dropShadow_0_1" result="shape"/>
		</filter>
	</defs>
</svg>

