<?xml version="1.0" encoding="UTF-8" standalone="no"?>
<!DOCTYPE svg PUBLIC "-//W3C//DTD SVG 1.1//EN" "http://www.w3.org/Graphics/SVG/1.1/DTD/svg11.dtd">
<svg width="456" height="456" viewBox="0 0 456 456" fill="none" xmlns="http://www.w3.org/2000/svg">
	<g filter="url(#filter0_f_0_1)">
		<path d="M84 178.5C118 130 203.5 133.5 231.5 196" stroke="#FFB300" stroke-width="1.4"/>
	</g>
	<g filter="url(#filter1_d_0_1)">
		<path d="M193.659 169.427C192.879 168.852 193.29 167.615 194.259 167.622L210.434 167.732C210.868 167.735 211.254 167.459 211.39 167.048L216.494 151.698C216.799 150.779 218.103 150.788 218.396 151.711L223.289 167.129C223.42 167.542 223.802 167.823 224.235 167.826L240.411 167.937C241.38 167.943 241.774 169.186 240.986 169.75L227.835 179.168C227.483 179.42 227.333 179.871 227.464 180.283L232.358 195.701C232.651 196.625 231.591 197.383 230.811 196.809L217.79 187.212C217.441 186.955 216.967 186.952 216.615 187.204L203.464 196.622C202.676 197.186 201.627 196.413 201.932 195.494L207.036 180.144C207.173 179.733 207.029 179.281 206.68 179.024L193.659 169.427Z" fill="#FFB300"/>
	</g>
	<g filter="url(#filter2_d_0_1)">
		<path d="M159.924 154.927C158.955 154.915 158.567 153.67 159.358 153.111L168.112 146.912C168.466 146.662 168.618 146.212 168.489 145.799L165.3 135.557C165.011 134.632 166.075 133.879 166.852 134.458L175.452 140.869C175.8 141.127 176.274 141.133 176.628 140.883L185.382 134.684C186.173 134.125 187.218 134.904 186.907 135.821L183.468 145.982C183.329 146.392 183.47 146.845 183.818 147.104L192.418 153.514C193.195 154.093 192.777 155.328 191.808 155.316L181.082 155.185C180.649 155.18 180.262 155.454 180.123 155.864L176.684 166.025C176.373 166.942 175.07 166.926 174.782 166.002L171.592 155.76C171.463 155.347 171.083 155.063 170.65 155.058L159.924 154.927Z" fill="#FFB300"/>
	</g>
	<g filter="url(#filter3_d_0_1)">
		<path d="M125.901 142.275C125.224 141.582 125.829 140.428 126.784 140.59L133.778 141.78C134.205 141.853 134.63 141.642 134.831 141.259L138.124 134.975C138.574 134.117 139.859 134.336 139.999 135.294L141.029 142.313C141.091 142.742 141.423 143.081 141.85 143.154L148.844 144.344C149.799 144.506 149.988 145.796 149.12 146.226L142.763 149.374C142.374 149.566 142.154 149.986 142.217 150.415L143.246 157.434C143.387 158.392 142.219 158.971 141.542 158.278L136.583 153.204C136.281 152.895 135.813 152.815 135.424 153.007L129.067 156.155C128.199 156.585 127.288 155.653 127.738 154.795L131.03 148.512C131.232 148.128 131.163 147.658 130.86 147.348L125.901 142.275Z" fill="#FFB300"/>
	</g>
	<g filter="url(#filter4_d_0_1)">
		<path d="M99.9181 155.993C99.05 155.563 99.239 154.273 100.194 154.111L105.039 153.286C105.466 153.213 105.797 152.874 105.86 152.445L106.573 147.583C106.714 146.625 107.999 146.406 108.448 147.264L110.73 151.617C110.931 152 111.356 152.211 111.783 152.138L116.628 151.314C117.583 151.151 118.188 152.306 117.511 152.998L114.076 156.513C113.773 156.823 113.704 157.293 113.905 157.676L116.187 162.029C116.636 162.887 115.725 163.819 114.857 163.389L110.453 161.209C110.065 161.017 109.597 161.096 109.294 161.406L105.86 164.921C105.182 165.613 104.014 165.035 104.155 164.077L104.868 159.214C104.931 158.786 104.71 158.365 104.322 158.173L99.9181 155.993Z" fill="#FFB300"/>
	</g>
	<g filter="url(#filter5_d_0_1)">
		<path d="M86.1398 170.378C85.4734 170.252 85.3567 169.348 85.9696 169.057L88.8159 167.709C89.0899 167.579 89.2492 167.288 89.2105 166.987L88.8079 163.864C88.7213 163.191 89.5458 162.8 90.0113 163.294L92.1729 165.584C92.3811 165.805 92.7076 165.866 92.9816 165.736L95.8279 164.388C96.4407 164.098 97.067 164.761 96.7418 165.356L95.2315 168.12C95.0861 168.386 95.1285 168.716 95.3367 168.936L97.4983 171.227C97.9637 171.72 97.5262 172.52 96.8598 172.395L93.7647 171.813C93.4667 171.757 93.1664 171.899 93.021 172.165L91.5107 174.928C91.1855 175.524 90.2889 175.355 90.2022 174.682L89.7996 171.559C89.7609 171.258 89.5329 171.016 89.2348 170.96L86.1398 170.378Z" fill="#FFB300"/>
	</g>
	<g filter="url(#filter6_d_0_1)">
		<path d="M48.5359 281C45.5359 281 42.9859 279.95 40.8859 277.85C38.7859 275.75 37.7359 273.2 37.7359 270.2V246.35H26.3359L29.4859 232.4H37.7359V226.55H26.3359L29.4859 212.6H37.7359V186.8C37.7359 183.8 38.7859 181.25 40.8859 179.15C42.9859 177.05 45.5359 176 48.5359 176H82.5859C85.5859 176 88.1359 177.05 90.2359 179.15C92.3359 181.25 93.3859 183.8 93.3859 186.8V200L79.4359 203.15V195.2C79.4359 193.7 78.8859 192.45 77.7859 191.45C76.7859 190.35 75.5359 189.8 74.0359 189.8H57.0859C55.5859 189.8 54.2859 190.35 53.1859 191.45C52.1859 192.45 51.6859 193.7 51.6859 195.2V212.6H76.2859L73.1359 226.55H51.6859V232.4H76.2859L73.1359 246.35H51.6859V261.65C51.6859 263.15 52.1859 264.45 53.1859 265.55C54.2859 266.55 55.5859 267.05 57.0859 267.05H74.0359C75.5359 267.05 76.7859 266.55 77.7859 265.55C78.8859 264.45 79.4359 263.15 79.4359 261.65V257L93.3859 253.85V270.2C93.3859 273.2 92.3359 275.75 90.2359 277.85C88.1359 279.95 85.5859 281 82.5859 281H48.5359ZM116.276 281C113.176 281 110.576 279.95 108.476 277.85C106.376 275.75 105.326 273.15 105.326 270.05V206H119.426V261.5C119.426 262.9 119.976 264.15 121.076 265.25C122.176 266.35 123.426 266.9 124.826 266.9H133.526V206H147.626V281H116.276ZM159.672 281V206H191.022C194.022 206 196.572 207.1 198.672 209.3C200.872 211.4 201.972 213.95 201.972 216.95V233.3L187.872 230.15V225.65C187.872 224.15 187.322 222.85 186.222 221.75C185.222 220.65 183.972 220.1 182.472 220.1H173.772V281H159.672ZM219.283 281C216.183 281 213.583 279.95 211.483 277.85C209.383 275.65 208.333 273.05 208.333 270.05V216.95C208.333 213.95 209.383 211.4 211.483 209.3C213.583 207.1 216.183 206 219.283 206H239.683C242.683 206 245.233 207.1 247.333 209.3C249.433 211.4 250.483 213.95 250.483 216.95V270.05C250.483 273.05 249.433 275.65 247.333 277.85C245.233 279.95 242.683 281 239.683 281H219.283ZM227.833 266.9H230.983C232.483 266.9 233.783 266.4 234.883 265.4C235.983 264.3 236.533 263 236.533 261.5V225.5C236.533 224 235.983 222.75 234.883 221.75C233.783 220.65 232.483 220.1 230.983 220.1H227.833C226.333 220.1 225.033 220.65 223.933 221.75C222.933 222.75 222.433 224 222.433 225.5V261.5C222.433 263 222.933 264.3 223.933 265.4C225.033 266.4 226.333 266.9 227.833 266.9ZM276.75 281C273.75 281 271.2 279.95 269.1 277.85C267 275.75 265.95 273.2 265.95 270.2V186.65C265.95 183.75 267 181.25 269.1 179.15C271.2 177.05 273.75 176 276.75 176H310.8C313.8 176 316.35 177.05 318.45 179.15C320.55 181.25 321.6 183.75 321.6 186.65V210.05L307.65 206.9V195.2C307.65 193.7 307.1 192.45 306 191.45C305 190.35 303.75 189.8 302.25 189.8H285.3C283.8 189.8 282.5 190.35 281.4 191.45C280.4 192.45 279.9 193.7 279.9 195.2V261.65C279.9 263.15 280.4 264.45 281.4 265.55C282.5 266.55 283.8 267.05 285.3 267.05H302.25C303.75 267.05 305 266.55 306 265.55C307.1 264.45 307.65 263.15 307.65 261.65V247.1H293.85L297 233.15H321.6V270.2C321.6 273.2 320.55 275.75 318.45 277.85C316.35 279.95 313.8 281 310.8 281H276.75ZM341.862 281C338.862 281 336.262 279.95 334.062 277.85C331.962 275.65 330.912 273.05 330.912 270.05V216.8C330.912 213.8 331.962 211.25 334.062 209.15C336.262 207.05 338.862 206 341.862 206H362.262C365.362 206 367.962 207.05 370.062 209.15C372.162 211.25 373.212 213.8 373.212 216.8V239.6C373.212 242.6 372.162 245.2 370.062 247.4C367.962 249.5 365.362 250.55 362.262 250.55H345.012V261.5C345.012 263 345.512 264.3 346.512 265.4C347.612 266.4 348.962 266.9 350.562 266.9H370.062L373.212 281H341.862ZM345.012 236.45H353.712C355.212 236.45 356.462 235.95 357.462 234.95C358.562 233.85 359.112 232.55 359.112 231.05V225.5C359.112 224 358.562 222.75 357.462 221.75C356.462 220.65 355.212 220.1 353.712 220.1H350.562C348.962 220.1 347.612 220.65 346.512 221.75C345.512 222.75 345.012 224 345.012 225.5V236.45ZM382.817 281V206H414.167C417.067 206 419.617 207.05 421.817 209.15C424.017 211.25 425.117 213.8 425.117 216.8V281H411.017V225.5C411.017 223.9 410.467 222.6 409.367 221.6C408.267 220.6 407.017 220.1 405.617 220.1H396.917V281H382.817Z" fill="white"/>
	</g>
	<defs>
		<filter id="filter0_f_0_1" x="77.4268" y="138.552" width="160.712" height="63.7341" filterUnits="userSpaceOnUse" color-interpolation-filters="sRGB">
			<feFlood flood-opacity="0" result="BackgroundImageFix"/>
			<feBlend mode="normal" in="SourceGraphic" in2="BackgroundImageFix" result="shape"/>
			<feGaussianBlur stdDeviation="3" result="effect1_foregroundBlur_0_1"/>
		</filter>
		<filter id="filter1_d_0_1" x="191.25" y="151.014" width="52.1555" height="53.9947" filterUnits="userSpaceOnUse" color-interpolation-filters="sRGB">
			<feFlood flood-opacity="0" result="BackgroundImageFix"/>
			<feColorMatrix in="SourceAlpha" type="matrix" values="0 0 0 0 0 0 0 0 0 0 0 0 0 0 0 0 0 0 127 0" result="hardAlpha"/>
			<feOffset dy="6"/>
			<feGaussianBlur stdDeviation="1"/>
			<feComposite in2="hardAlpha" operator="out"/>
			<feColorMatrix type="matrix" values="0 0 0 0 0 0 0 0 0 0 0 0 0 0 0 0 0 0 0.25 0"/>
			<feBlend mode="normal" in2="BackgroundImageFix" result="effect1_dropShadow_0_1"/>
			<feBlend mode="normal" in="SourceGraphic" in2="effect1_dropShadow_0_1" result="shape"/>
		</filter>
		<filter id="filter2_d_0_1" x="156.934" y="134.255" width="37.8884" height="38.4489" filterUnits="userSpaceOnUse" color-interpolation-filters="sRGB">
			<feFlood flood-opacity="0" result="BackgroundImageFix"/>
			<feColorMatrix in="SourceAlpha" type="matrix" values="0 0 0 0 0 0 0 0 0 0 0 0 0 0 0 0 0 0 127 0" result="hardAlpha"/>
			<feOffset dy="4"/>
			<feGaussianBlur stdDeviation="1"/>
			<feComposite in2="hardAlpha" operator="out"/>
			<feColorMatrix type="matrix" values="0 0 0 0 0 0 0 0 0 0 0 0 0 0 0 0 0 0 0.25 0"/>
			<feBlend mode="normal" in2="BackgroundImageFix" result="effect1_dropShadow_0_1"/>
			<feBlend mode="normal" in="SourceGraphic" in2="effect1_dropShadow_0_1" result="shape"/>
		</filter>
		<filter id="filter3_d_0_1" x="123.613" y="134.439" width="28.0634" height="29.1435" filterUnits="userSpaceOnUse" color-interpolation-filters="sRGB">
			<feFlood flood-opacity="0" result="BackgroundImageFix"/>
			<feColorMatrix in="SourceAlpha" type="matrix" values="0 0 0 0 0 0 0 0 0 0 0 0 0 0 0 0 0 0 127 0" result="hardAlpha"/>
			<feOffset dy="3"/>
			<feGaussianBlur stdDeviation="1"/>
			<feComposite in2="hardAlpha" operator="out"/>
			<feColorMatrix type="matrix" values="0 0 0 0 0 0 0 0 0 0 0 0 0 0 0 0 0 0 0.25 0"/>
			<feBlend mode="normal" in2="BackgroundImageFix" result="effect1_dropShadow_0_1"/>
			<feBlend mode="normal" in="SourceGraphic" in2="effect1_dropShadow_0_1" result="shape"/>
		</filter>
		<filter id="filter4_d_0_1" x="97.3613" y="146.727" width="22.4378" height="22.4977" filterUnits="userSpaceOnUse" color-interpolation-filters="sRGB">
			<feFlood flood-opacity="0" result="BackgroundImageFix"/>
			<feColorMatrix in="SourceAlpha" type="matrix" values="0 0 0 0 0 0 0 0 0 0 0 0 0 0 0 0 0 0 127 0" result="hardAlpha"/>
			<feOffset dy="2"/>
			<feGaussianBlur stdDeviation="1"/>
			<feComposite in2="hardAlpha" operator="out"/>
			<feColorMatrix type="matrix" values="0 0 0 0 0 0 0 0 0 0 0 0 0 0 0 0 0 0 0.25 0"/>
			<feBlend mode="normal" in2="BackgroundImageFix" result="effect1_dropShadow_0_1"/>
			<feBlend mode="normal" in="SourceGraphic" in2="effect1_dropShadow_0_1" result="shape"/>
		</filter>
		<filter id="filter5_d_0_1" x="83.569" y="162.072" width="16.1229" height="16.2215" filterUnits="userSpaceOnUse" color-interpolation-filters="sRGB">
			<feFlood flood-opacity="0" result="BackgroundImageFix"/>
			<feColorMatrix in="SourceAlpha" type="matrix" values="0 0 0 0 0 0 0 0 0 0 0 0 0 0 0 0 0 0 127 0" result="hardAlpha"/>
			<feOffset dy="1"/>
			<feGaussianBlur stdDeviation="1"/>
			<feComposite in2="hardAlpha" operator="out"/>
			<feColorMatrix type="matrix" values="0 0 0 0 0 0 0 0 0 0 0 0 0 0 0 0 0 0 0.25 0"/>
			<feBlend mode="normal" in2="BackgroundImageFix" result="effect1_dropShadow_0_1"/>
			<feBlend mode="normal" in="SourceGraphic" in2="effect1_dropShadow_0_1" result="shape"/>
		</filter>
		<filter id="filter6_d_0_1" x="24.3359" y="176" width="402.781" height="113" filterUnits="userSpaceOnUse" color-interpolation-filters="sRGB">
			<feFlood flood-opacity="0" result="BackgroundImageFix"/>
			<feColorMatrix in="SourceAlpha" type="matrix" values="0 0 0 0 0 0 0 0 0 0 0 0 0 0 0 0 0 0 127 0" result="hardAlpha"/>
			<feOffset dy="6"/>
			<feGaussianBlur stdDeviation="1"/>
			<feComposite in2="hardAlpha" operator="out"/>
			<feColorMatrix type="matrix" values="0 0 0 0 0 0 0 0 0 0 0 0 0 0 0 0 0 0 0.25 0"/>
			<feBlend mode="normal" in2="BackgroundImageFix" result="effect1_dropShadow_0_1"/>
			<feBlend mode="normal" in="SourceGraphic" in2="effect1_dropShadow_0_1" result="shape"/>
		</filter>
	</defs>
</svg>


