<?xml version="1.0" encoding="UTF-8" standalone="no"?>
<!DOCTYPE svg PUBLIC "-//W3C//DTD SVG 1.1//EN" "http://www.w3.org/Graphics/SVG/1.1/DTD/svg11.dtd">
<svg width="456" height="456" viewBox="0 0 456 456" fill="none" xmlns="http://www.w3.org/2000/svg">
	<g filter="url(#filter0_f_0_1)">
		<path d="M86 199.413C119.424 150.673 203.475 154.19 231 217" stroke="#FFB545" stroke-width="1.4"/>
	</g>
	<g filter="url(#filter1_d_0_1)">
		<path d="M194.535 190.528C193.759 189.95 194.164 188.716 195.128 188.723L211.119 188.833C211.55 188.836 211.933 188.561 212.068 188.15L217.108 172.824C217.411 171.901 218.716 171.917 219.007 172.846L223.833 188.222C223.964 188.639 224.349 188.925 224.784 188.928L240.748 189.038C241.714 189.044 242.115 190.288 241.333 190.853L228.329 200.271C227.982 200.523 227.835 200.97 227.964 201.381L232.803 216.798C233.093 217.725 232.036 218.478 231.259 217.898L218.407 208.32C218.057 208.059 217.58 208.055 217.229 208.31L204.258 217.703C203.475 218.27 202.421 217.493 202.724 216.57L207.763 201.244C207.898 200.834 207.755 200.381 207.407 200.122L194.535 190.528Z" fill="#FFB545"/>
	</g>
	<g filter="url(#filter2_d_0_1)">
		<path d="M161.173 176.028C160.209 176.016 159.827 174.775 160.614 174.212L169.267 168.016C169.619 167.764 169.771 167.314 169.644 166.901L166.497 156.683C166.211 155.755 167.28 154.998 168.053 155.581L176.523 161.965C176.87 162.226 177.347 162.231 177.702 161.977L186.333 155.797C187.121 155.233 188.164 156.006 187.856 156.926L184.455 167.086C184.318 167.495 184.457 167.945 184.799 168.203L193.304 174.613C194.074 175.194 193.65 176.429 192.684 176.417L182.109 176.286C181.674 176.281 181.284 176.559 181.146 176.974L177.759 187.092C177.449 188.016 176.145 188.006 175.859 187.078L172.712 176.86C172.584 176.447 172.207 176.164 171.775 176.159L161.173 176.028Z" fill="#FFB545"/>
	</g>
	<g filter="url(#filter3_d_0_1)">
		<path d="M127.532 163.38C126.858 162.683 127.456 161.529 128.406 161.693L135.312 162.881C135.738 162.954 136.16 162.744 136.359 162.36L139.604 156.097C140.051 155.235 141.334 155.461 141.474 156.425L142.486 163.407C142.549 163.84 142.882 164.183 143.309 164.257L150.197 165.442C151.149 165.605 151.343 166.899 150.482 167.33L144.201 170.475C143.817 170.667 143.6 171.086 143.662 171.515L144.679 178.527C144.819 179.489 143.656 180.063 142.982 179.365L138.098 174.313C137.795 173.999 137.326 173.918 136.939 174.112L130.685 177.243C129.821 177.676 128.908 176.737 129.354 175.876L132.6 169.613C132.799 169.229 132.73 168.758 132.428 168.446L127.532 163.38Z" fill="#FFB545"/>
	</g>
	<g filter="url(#filter4_d_0_1)">
		<path d="M101.83 177.093C100.966 176.66 101.152 175.376 102.103 175.212L106.892 174.388C107.317 174.315 107.647 173.976 107.709 173.549L108.41 168.711C108.549 167.75 109.838 167.536 110.286 168.399L112.52 172.71C112.721 173.098 113.15 173.311 113.579 173.237L118.337 172.418C119.29 172.254 119.9 173.406 119.229 174.101L115.83 177.618C115.532 177.926 115.465 178.391 115.662 178.773L117.92 183.128C118.366 183.989 117.454 184.915 116.588 184.481L112.263 182.316C111.872 182.12 111.401 182.201 111.098 182.514L107.735 185.994C107.061 186.691 105.887 186.112 106.026 185.151L106.728 180.313C106.79 179.886 106.57 179.466 106.183 179.272L101.83 177.093Z" fill="#FFB545"/>
	</g>
	<g filter="url(#filter5_d_0_1)">
		<path d="M88.2051 191.479C87.5418 191.352 87.4269 190.451 88.037 190.159L90.8504 188.812C91.1234 188.681 91.2821 188.39 91.2438 188.09L90.848 184.984C90.762 184.309 91.5908 183.918 92.0541 184.415L94.1688 186.681C94.3769 186.904 94.7058 186.965 94.9815 186.833L97.7748 185.495C98.3863 185.203 99.0133 185.862 98.6908 186.459L97.1962 189.224C97.0531 189.489 97.0947 189.815 97.2995 190.035L99.4387 192.327C99.9003 192.821 99.4591 193.62 98.7942 193.494L95.7567 192.916C95.4569 192.859 95.1542 193.003 95.0088 193.272L93.5313 196.006C93.2076 196.605 92.3078 196.439 92.2219 195.764L91.826 192.658C91.7878 192.358 91.5613 192.117 91.2644 192.061L88.2051 191.479Z" fill="#FFB545"/>
	</g>
	<g filter="url(#filter6_d_0_1)">
		<path d="M49.0359 297C46.0359 297 43.4859 295.95 41.3859 293.85C39.2859 291.75 38.2359 289.2 38.2359 286.2V262.35H26.8359L29.9859 248.4H38.2359V242.55H26.8359L29.9859 228.6H38.2359V202.8C38.2359 199.8 39.2859 197.25 41.3859 195.15C43.4859 193.05 46.0359 192 49.0359 192H83.0859C86.0859 192 88.6359 193.05 90.7359 195.15C92.8359 197.25 93.8859 199.8 93.8859 202.8V216L79.9359 219.15V211.2C79.9359 209.7 79.3859 208.45 78.2859 207.45C77.2859 206.35 76.0359 205.8 74.5359 205.8H57.5859C56.0859 205.8 54.7859 206.35 53.6859 207.45C52.6859 208.45 52.1859 209.7 52.1859 211.2V228.6H76.7859L73.6359 242.55H52.1859V248.4H76.7859L73.6359 262.35H52.1859V277.65C52.1859 279.15 52.6859 280.45 53.6859 281.55C54.7859 282.55 56.0859 283.05 57.5859 283.05H74.5359C76.0359 283.05 77.2859 282.55 78.2859 281.55C79.3859 280.45 79.9359 279.15 79.9359 277.65V273L93.8859 269.85V286.2C93.8859 289.2 92.8359 291.75 90.7359 293.85C88.6359 295.95 86.0859 297 83.0859 297H49.0359ZM116.776 297C113.676 297 111.076 295.95 108.976 293.85C106.876 291.75 105.826 289.15 105.826 286.05V222H119.926V277.5C119.926 278.9 120.476 280.15 121.576 281.25C122.676 282.35 123.926 282.9 125.326 282.9H134.026V222H148.126V297H116.776ZM160.172 297V222H191.522C194.522 222 197.072 223.1 199.172 225.3C201.372 227.4 202.472 229.95 202.472 232.95V249.3L188.372 246.15V241.65C188.372 240.15 187.822 238.85 186.722 237.75C185.722 236.65 184.472 236.1 182.972 236.1H174.272V297H160.172ZM219.783 297C216.683 297 214.083 295.95 211.983 293.85C209.883 291.65 208.833 289.05 208.833 286.05V232.95C208.833 229.95 209.883 227.4 211.983 225.3C214.083 223.1 216.683 222 219.783 222H240.183C243.183 222 245.733 223.1 247.833 225.3C249.933 227.4 250.983 229.95 250.983 232.95V286.05C250.983 289.05 249.933 291.65 247.833 293.85C245.733 295.95 243.183 297 240.183 297H219.783ZM228.333 282.9H231.483C232.983 282.9 234.283 282.4 235.383 281.4C236.483 280.3 237.033 279 237.033 277.5V241.5C237.033 240 236.483 238.75 235.383 237.75C234.283 236.65 232.983 236.1 231.483 236.1H228.333C226.833 236.1 225.533 236.65 224.433 237.75C223.433 238.75 222.933 240 222.933 241.5V277.5C222.933 279 223.433 280.3 224.433 281.4C225.533 282.4 226.833 282.9 228.333 282.9ZM277.25 297C274.25 297 271.7 295.95 269.6 293.85C267.5 291.75 266.45 289.2 266.45 286.2V202.65C266.45 199.75 267.5 197.25 269.6 195.15C271.7 193.05 274.25 192 277.25 192H311.3C314.3 192 316.85 193.05 318.95 195.15C321.05 197.25 322.1 199.75 322.1 202.65V226.05L308.15 222.9V211.2C308.15 209.7 307.6 208.45 306.5 207.45C305.5 206.35 304.25 205.8 302.75 205.8H285.8C284.3 205.8 283 206.35 281.9 207.45C280.9 208.45 280.4 209.7 280.4 211.2V277.65C280.4 279.15 280.9 280.45 281.9 281.55C283 282.55 284.3 283.05 285.8 283.05H302.75C304.25 283.05 305.5 282.55 306.5 281.55C307.6 280.45 308.15 279.15 308.15 277.65V263.1H294.35L297.5 249.15H322.1V286.2C322.1 289.2 321.05 291.75 318.95 293.85C316.85 295.95 314.3 297 311.3 297H277.25ZM342.362 297C339.362 297 336.762 295.95 334.562 293.85C332.462 291.65 331.412 289.05 331.412 286.05V232.8C331.412 229.8 332.462 227.25 334.562 225.15C336.762 223.05 339.362 222 342.362 222H362.762C365.862 222 368.462 223.05 370.562 225.15C372.662 227.25 373.712 229.8 373.712 232.8V255.6C373.712 258.6 372.662 261.2 370.562 263.4C368.462 265.5 365.862 266.55 362.762 266.55H345.512V277.5C345.512 279 346.012 280.3 347.012 281.4C348.112 282.4 349.462 282.9 351.062 282.9H370.562L373.712 297H342.362ZM345.512 252.45H354.212C355.712 252.45 356.962 251.95 357.962 250.95C359.062 249.85 359.612 248.55 359.612 247.05V241.5C359.612 240 359.062 238.75 357.962 237.75C356.962 236.65 355.712 236.1 354.212 236.1H351.062C349.462 236.1 348.112 236.65 347.012 237.75C346.012 238.75 345.512 240 345.512 241.5V252.45ZM383.317 297V222H414.667C417.567 222 420.117 223.05 422.317 225.15C424.517 227.25 425.617 229.8 425.617 232.8V297H411.517V241.5C411.517 239.9 410.967 238.6 409.867 237.6C408.767 236.6 407.517 236.1 406.117 236.1H397.417V297H383.317Z" fill="white"/>
	</g>
	<defs>
		<filter id="filter0_f_0_1" x="79.4227" y="159.3" width="158.218" height="63.9809" filterUnits="userSpaceOnUse" color-interpolation-filters="sRGB">
			<feFlood flood-opacity="0" result="BackgroundImageFix"/>
			<feBlend mode="normal" in="SourceGraphic" in2="BackgroundImageFix" result="shape"/>
			<feGaussianBlur stdDeviation="3" result="effect1_foregroundBlur_0_1"/>
		</filter>
		<filter id="filter1_d_0_1" x="192.127" y="172.14" width="51.6195" height="53.9608" filterUnits="userSpaceOnUse" color-interpolation-filters="sRGB">
			<feFlood flood-opacity="0" result="BackgroundImageFix"/>
			<feColorMatrix in="SourceAlpha" type="matrix" values="0 0 0 0 0 0 0 0 0 0 0 0 0 0 0 0 0 0 127 0" result="hardAlpha"/>
			<feOffset dy="6"/>
			<feGaussianBlur stdDeviation="1"/>
			<feComposite in2="hardAlpha" operator="out"/>
			<feColorMatrix type="matrix" values="0 0 0 0 0 0 0 0 0 0 0 0 0 0 0 0 0 0 0.25 0"/>
			<feBlend mode="normal" in2="BackgroundImageFix" result="effect1_dropShadow_0_1"/>
			<feBlend mode="normal" in="SourceGraphic" in2="effect1_dropShadow_0_1" result="shape"/>
		</filter>
		<filter id="filter2_d_0_1" x="158.191" y="155.376" width="37.5113" height="38.4028" filterUnits="userSpaceOnUse" color-interpolation-filters="sRGB">
			<feFlood flood-opacity="0" result="BackgroundImageFix"/>
			<feColorMatrix in="SourceAlpha" type="matrix" values="0 0 0 0 0 0 0 0 0 0 0 0 0 0 0 0 0 0 127 0" result="hardAlpha"/>
			<feOffset dy="4"/>
			<feGaussianBlur stdDeviation="1"/>
			<feComposite in2="hardAlpha" operator="out"/>
			<feColorMatrix type="matrix" values="0 0 0 0 0 0 0 0 0 0 0 0 0 0 0 0 0 0 0.25 0"/>
			<feBlend mode="normal" in2="BackgroundImageFix" result="effect1_dropShadow_0_1"/>
			<feBlend mode="normal" in="SourceGraphic" in2="effect1_dropShadow_0_1" result="shape"/>
		</filter>
		<filter id="filter3_d_0_1" x="125.244" y="155.561" width="27.7873" height="29.1133" filterUnits="userSpaceOnUse" color-interpolation-filters="sRGB">
			<feFlood flood-opacity="0" result="BackgroundImageFix"/>
			<feColorMatrix in="SourceAlpha" type="matrix" values="0 0 0 0 0 0 0 0 0 0 0 0 0 0 0 0 0 0 127 0" result="hardAlpha"/>
			<feOffset dy="3"/>
			<feGaussianBlur stdDeviation="1"/>
			<feComposite in2="hardAlpha" operator="out"/>
			<feColorMatrix type="matrix" values="0 0 0 0 0 0 0 0 0 0 0 0 0 0 0 0 0 0 0.25 0"/>
			<feBlend mode="normal" in2="BackgroundImageFix" result="effect1_dropShadow_0_1"/>
			<feBlend mode="normal" in="SourceGraphic" in2="effect1_dropShadow_0_1" result="shape"/>
		</filter>
		<filter id="filter4_d_0_1" x="99.2753" y="167.857" width="22.2371" height="22.4442" filterUnits="userSpaceOnUse" color-interpolation-filters="sRGB">
			<feFlood flood-opacity="0" result="BackgroundImageFix"/>
			<feColorMatrix in="SourceAlpha" type="matrix" values="0 0 0 0 0 0 0 0 0 0 0 0 0 0 0 0 0 0 127 0" result="hardAlpha"/>
			<feOffset dy="2"/>
			<feGaussianBlur stdDeviation="1"/>
			<feComposite in2="hardAlpha" operator="out"/>
			<feColorMatrix type="matrix" values="0 0 0 0 0 0 0 0 0 0 0 0 0 0 0 0 0 0 0.25 0"/>
			<feBlend mode="normal" in2="BackgroundImageFix" result="effect1_dropShadow_0_1"/>
			<feBlend mode="normal" in="SourceGraphic" in2="effect1_dropShadow_0_1" result="shape"/>
		</filter>
		<filter id="filter5_d_0_1" x="85.6377" y="183.191" width="15.9914" height="16.1837" filterUnits="userSpaceOnUse" color-interpolation-filters="sRGB">
			<feFlood flood-opacity="0" result="BackgroundImageFix"/>
			<feColorMatrix in="SourceAlpha" type="matrix" values="0 0 0 0 0 0 0 0 0 0 0 0 0 0 0 0 0 0 127 0" result="hardAlpha"/>
			<feOffset dy="1"/>
			<feGaussianBlur stdDeviation="1"/>
			<feComposite in2="hardAlpha" operator="out"/>
			<feColorMatrix type="matrix" values="0 0 0 0 0 0 0 0 0 0 0 0 0 0 0 0 0 0 0.25 0"/>
			<feBlend mode="normal" in2="BackgroundImageFix" result="effect1_dropShadow_0_1"/>
			<feBlend mode="normal" in="SourceGraphic" in2="effect1_dropShadow_0_1" result="shape"/>
		</filter>
		<filter id="filter6_d_0_1" x="24.8359" y="192" width="402.781" height="113" filterUnits="userSpaceOnUse" color-interpolation-filters="sRGB">
			<feFlood flood-opacity="0" result="BackgroundImageFix"/>
			<feColorMatrix in="SourceAlpha" type="matrix" values="0 0 0 0 0 0 0 0 0 0 0 0 0 0 0 0 0 0 127 0" result="hardAlpha"/>
			<feOffset dy="6"/>
			<feGaussianBlur stdDeviation="1"/>
			<feComposite in2="hardAlpha" operator="out"/>
			<feColorMatrix type="matrix" values="0 0 0 0 0 0 0 0 0 0 0 0 0 0 0 0 0 0 0.25 0"/>
			<feBlend mode="normal" in2="BackgroundImageFix" result="effect1_dropShadow_0_1"/>
			<feBlend mode="normal" in="SourceGraphic" in2="effect1_dropShadow_0_1" result="shape"/>
		</filter>
	</defs>
</svg>
