<svg width="519" height="236" viewBox="0 0 519 236" fill="none" xmlns="http://www.w3.org/2000/svg">
	<g filter="url(#filter0_f_0_1)">
		<path d="M117 79.5143C150.424 30.7737 234.475 34.2911 262 97.1012" stroke="#FFB545" stroke-width="1.4"/>
	</g>
	<g filter="url(#filter1_d_0_1)">
		<path d="M225.535 70.6296C224.759 70.0511 225.164 68.8175 226.128 68.8242L242.119 68.9345C242.55 68.9375 242.933 68.6618 243.068 68.2512L248.108 52.925C248.411 52.0027 249.716 52.0179 250.007 52.9471L254.833 68.3233C254.964 68.7404 255.349 69.0258 255.784 69.0288L271.748 69.139C272.714 69.1456 273.115 70.3887 272.333 70.9547L259.329 80.3724C258.982 80.6239 258.835 81.071 258.964 81.4826L263.803 96.8995C264.093 97.8259 263.036 98.5789 262.259 97.9994L249.407 88.4214C249.057 88.1605 248.58 88.1563 248.229 88.4111L235.258 97.804C234.475 98.3717 233.421 97.5939 233.724 96.6716L238.763 81.3454C238.898 80.9347 238.755 80.4821 238.407 80.2233L225.535 70.6296Z" fill="#FFB545"/>
	</g>
	<g filter="url(#filter2_d_0_1)">
		<path d="M192.173 56.129C191.209 56.1171 190.827 54.8762 191.614 54.3128L200.267 48.1172C200.619 47.8651 200.771 47.4153 200.644 47.0023L197.497 36.7844C197.211 35.8565 198.28 35.0992 199.053 35.6818L207.523 42.0659C207.87 42.3275 208.347 42.3324 208.702 42.0783L217.333 35.8984C218.121 35.3339 219.164 36.1069 218.856 37.0275L215.455 47.1874C215.318 47.5964 215.457 48.0461 215.799 48.3042L224.304 54.7144C225.074 55.2953 224.65 56.5303 223.684 56.5183L213.109 56.3877C212.674 56.3823 212.284 56.6603 212.146 57.0748L208.759 67.1933C208.449 68.1168 207.145 68.1071 206.859 67.1791L203.712 56.9613C203.584 56.5482 203.207 56.2653 202.775 56.26L192.173 56.129Z" fill="#FFB545"/>
	</g>
	<g filter="url(#filter3_d_0_1)">
		<path d="M158.532 43.4815C157.858 42.7844 158.456 41.6302 159.406 41.7937L166.312 42.9819C166.738 43.055 167.16 42.8448 167.359 42.4607L170.604 36.1981C171.051 35.3367 172.334 35.5619 172.474 36.5263L173.486 43.5084C173.549 43.9408 173.882 44.2842 174.309 44.3578L181.197 45.5428C182.149 45.7065 182.343 47 181.482 47.4316L175.201 50.5766C174.817 50.7687 174.6 51.1876 174.662 51.616L175.679 58.6281C175.819 59.5904 174.656 60.1645 173.982 59.4665L169.098 54.4138C168.795 54.1002 168.326 54.0189 167.939 54.2128L161.685 57.3444C160.821 57.7769 159.908 56.8383 160.354 55.9768L163.6 49.7142C163.799 49.3302 163.73 48.8595 163.428 48.5476L158.532 43.4815Z" fill="#FFB545"/>
	</g>
	<g filter="url(#filter4_d_0_1)">
		<path d="M132.83 57.1938C131.966 56.7612 132.152 55.4769 133.103 55.3133L137.892 54.4892C138.317 54.416 138.647 54.0775 138.709 53.6499L139.41 48.8126C139.549 47.8513 140.838 47.637 141.286 48.5007L143.52 52.8108C143.721 53.1988 144.15 53.4122 144.579 53.3383L149.337 52.5195C150.29 52.3555 150.9 53.5074 150.229 54.2022L146.83 57.719C146.532 58.0273 146.465 58.4924 146.662 58.8743L148.92 63.2296C149.366 64.0901 148.454 65.0163 147.588 64.5826L143.263 62.4172C142.872 62.2217 142.401 62.3017 142.098 62.6149L138.735 66.0952C138.061 66.7926 136.887 66.2131 137.026 65.2518L137.728 60.4145C137.79 59.9869 137.57 59.567 137.183 59.3734L132.83 57.1938Z" fill="#FFB545"/>
	</g>
	<g filter="url(#filter5_d_0_1)">
		<path d="M119.205 71.5799C118.542 71.4537 118.427 70.5527 119.037 70.2605L121.85 68.9131C122.123 68.7823 122.282 68.4911 122.244 68.1911L121.848 65.0851C121.762 64.4106 122.591 64.0195 123.054 64.5159L125.169 66.7817C125.377 67.0047 125.706 67.0665 125.982 66.9345L128.775 65.5967C129.386 65.3038 130.013 65.9632 129.691 66.56L128.196 69.3255C128.053 69.5904 128.095 69.9166 128.3 70.1361L130.439 72.4281C130.9 72.9226 130.459 73.7213 129.794 73.5947L126.757 73.0168C126.457 72.9597 126.154 73.1039 126.009 73.3729L124.531 76.1068C124.208 76.7058 123.308 76.54 123.222 75.8655L122.826 72.7595C122.788 72.4595 122.561 72.2185 122.264 72.162L119.205 71.5799Z" fill="#FFB545"/>
	</g>
	<g filter="url(#filter6_d_0_1)">
		<path d="M80.0359 182.101C77.0359 182.101 74.4859 181.051 72.3859 178.951C70.2859 176.851 69.2359 174.301 69.2359 171.301V147.451H57.8359L60.9859 133.501H69.2359V127.651H57.8359L60.9859 113.701H69.2359V87.9012C69.2359 84.9012 70.2859 82.3512 72.3859 80.2512C74.4859 78.1512 77.0359 77.1012 80.0359 77.1012H114.086C117.086 77.1012 119.636 78.1512 121.736 80.2512C123.836 82.3512 124.886 84.9012 124.886 87.9012V101.101L110.936 104.251V96.3012C110.936 94.8012 110.386 93.5512 109.286 92.5512C108.286 91.4512 107.036 90.9012 105.536 90.9012H88.5859C87.0859 90.9012 85.7859 91.4512 84.6859 92.5512C83.6859 93.5512 83.1859 94.8012 83.1859 96.3012V113.701H107.786L104.636 127.651H83.1859V133.501H107.786L104.636 147.451H83.1859V162.751C83.1859 164.251 83.6859 165.551 84.6859 166.651C85.7859 167.651 87.0859 168.151 88.5859 168.151H105.536C107.036 168.151 108.286 167.651 109.286 166.651C110.386 165.551 110.936 164.251 110.936 162.751V158.101L124.886 154.951V171.301C124.886 174.301 123.836 176.851 121.736 178.951C119.636 181.051 117.086 182.101 114.086 182.101H80.0359ZM147.776 182.101C144.676 182.101 142.076 181.051 139.976 178.951C137.876 176.851 136.826 174.251 136.826 171.151V107.101H150.926V162.601C150.926 164.001 151.476 165.251 152.576 166.351C153.676 167.451 154.926 168.001 156.326 168.001H165.026V107.101H179.126V182.101H147.776ZM191.172 182.101V107.101H222.522C225.522 107.101 228.072 108.201 230.172 110.401C232.372 112.501 233.472 115.051 233.472 118.051V134.401L219.372 131.251V126.751C219.372 125.251 218.822 123.951 217.722 122.851C216.722 121.751 215.472 121.201 213.972 121.201H205.272V182.101H191.172ZM250.783 182.101C247.683 182.101 245.083 181.051 242.983 178.951C240.883 176.751 239.833 174.151 239.833 171.151V118.051C239.833 115.051 240.883 112.501 242.983 110.401C245.083 108.201 247.683 107.101 250.783 107.101H271.183C274.183 107.101 276.733 108.201 278.833 110.401C280.933 112.501 281.983 115.051 281.983 118.051V171.151C281.983 174.151 280.933 176.751 278.833 178.951C276.733 181.051 274.183 182.101 271.183 182.101H250.783ZM259.333 168.001H262.483C263.983 168.001 265.283 167.501 266.383 166.501C267.483 165.401 268.033 164.101 268.033 162.601V126.601C268.033 125.101 267.483 123.851 266.383 122.851C265.283 121.751 263.983 121.201 262.483 121.201H259.333C257.833 121.201 256.533 121.751 255.433 122.851C254.433 123.851 253.933 125.101 253.933 126.601V162.601C253.933 164.101 254.433 165.401 255.433 166.501C256.533 167.501 257.833 168.001 259.333 168.001ZM308.25 182.101C305.25 182.101 302.7 181.051 300.6 178.951C298.5 176.851 297.45 174.301 297.45 171.301V87.7512C297.45 84.8512 298.5 82.3512 300.6 80.2512C302.7 78.1512 305.25 77.1012 308.25 77.1012H342.3C345.3 77.1012 347.85 78.1512 349.95 80.2512C352.05 82.3512 353.1 84.8512 353.1 87.7512V111.151L339.15 108.001V96.3012C339.15 94.8012 338.6 93.5512 337.5 92.5512C336.5 91.4512 335.25 90.9012 333.75 90.9012H316.8C315.3 90.9012 314 91.4512 312.9 92.5512C311.9 93.5512 311.4 94.8012 311.4 96.3012V162.751C311.4 164.251 311.9 165.551 312.9 166.651C314 167.651 315.3 168.151 316.8 168.151H333.75C335.25 168.151 336.5 167.651 337.5 166.651C338.6 165.551 339.15 164.251 339.15 162.751V148.201H325.35L328.5 134.251H353.1V171.301C353.1 174.301 352.05 176.851 349.95 178.951C347.85 181.051 345.3 182.101 342.3 182.101H308.25ZM373.362 182.101C370.362 182.101 367.762 181.051 365.562 178.951C363.462 176.751 362.412 174.151 362.412 171.151V117.901C362.412 114.901 363.462 112.351 365.562 110.251C367.762 108.151 370.362 107.101 373.362 107.101H393.762C396.862 107.101 399.462 108.151 401.562 110.251C403.662 112.351 404.712 114.901 404.712 117.901V140.701C404.712 143.701 403.662 146.301 401.562 148.501C399.462 150.601 396.862 151.651 393.762 151.651H376.512V162.601C376.512 164.101 377.012 165.401 378.012 166.501C379.112 167.501 380.462 168.001 382.062 168.001H401.562L404.712 182.101H373.362ZM376.512 137.551H385.212C386.712 137.551 387.962 137.051 388.962 136.051C390.062 134.951 390.612 133.651 390.612 132.151V126.601C390.612 125.101 390.062 123.851 388.962 122.851C387.962 121.751 386.712 121.201 385.212 121.201H382.062C380.462 121.201 379.112 121.751 378.012 122.851C377.012 123.851 376.512 125.101 376.512 126.601V137.551ZM414.317 182.101V107.101H445.667C448.567 107.101 451.117 108.151 453.317 110.251C455.517 112.351 456.617 114.901 456.617 117.901V182.101H442.517V126.601C442.517 125.001 441.967 123.701 440.867 122.701C439.767 121.701 438.517 121.201 437.117 121.201H428.417V182.101H414.317Z" fill="#0D1F6F"/>
	</g>
	<defs>
		<filter id="filter0_f_0_1" x="110.423" y="39.4012" width="158.218" height="63.9809" filterUnits="userSpaceOnUse" color-interpolation-filters="sRGB">
			<feFlood flood-opacity="0" result="BackgroundImageFix"/>
			<feBlend mode="normal" in="SourceGraphic" in2="BackgroundImageFix" result="shape"/>
			<feGaussianBlur stdDeviation="3" result="effect1_foregroundBlur_0_1"/>
		</filter>
		<filter id="filter1_d_0_1" x="223.127" y="52.2416" width="51.6195" height="53.9608" filterUnits="userSpaceOnUse" color-interpolation-filters="sRGB">
			<feFlood flood-opacity="0" result="BackgroundImageFix"/>
			<feColorMatrix in="SourceAlpha" type="matrix" values="0 0 0 0 0 0 0 0 0 0 0 0 0 0 0 0 0 0 127 0" result="hardAlpha"/>
			<feOffset dy="6"/>
			<feGaussianBlur stdDeviation="1"/>
			<feComposite in2="hardAlpha" operator="out"/>
			<feColorMatrix type="matrix" values="0 0 0 0 0 0 0 0 0 0 0 0 0 0 0 0 0 0 0.25 0"/>
			<feBlend mode="normal" in2="BackgroundImageFix" result="effect1_dropShadow_0_1"/>
			<feBlend mode="normal" in="SourceGraphic" in2="effect1_dropShadow_0_1" result="shape"/>
		</filter>
		<filter id="filter2_d_0_1" x="189.191" y="35.4777" width="37.5113" height="38.4028" filterUnits="userSpaceOnUse" color-interpolation-filters="sRGB">
			<feFlood flood-opacity="0" result="BackgroundImageFix"/>
			<feColorMatrix in="SourceAlpha" type="matrix" values="0 0 0 0 0 0 0 0 0 0 0 0 0 0 0 0 0 0 127 0" result="hardAlpha"/>
			<feOffset dy="4"/>
			<feGaussianBlur stdDeviation="1"/>
			<feComposite in2="hardAlpha" operator="out"/>
			<feColorMatrix type="matrix" values="0 0 0 0 0 0 0 0 0 0 0 0 0 0 0 0 0 0 0.25 0"/>
			<feBlend mode="normal" in2="BackgroundImageFix" result="effect1_dropShadow_0_1"/>
			<feBlend mode="normal" in="SourceGraphic" in2="effect1_dropShadow_0_1" result="shape"/>
		</filter>
		<filter id="filter3_d_0_1" x="156.244" y="35.662" width="27.7874" height="29.1133" filterUnits="userSpaceOnUse" color-interpolation-filters="sRGB">
			<feFlood flood-opacity="0" result="BackgroundImageFix"/>
			<feColorMatrix in="SourceAlpha" type="matrix" values="0 0 0 0 0 0 0 0 0 0 0 0 0 0 0 0 0 0 127 0" result="hardAlpha"/>
			<feOffset dy="3"/>
			<feGaussianBlur stdDeviation="1"/>
			<feComposite in2="hardAlpha" operator="out"/>
			<feColorMatrix type="matrix" values="0 0 0 0 0 0 0 0 0 0 0 0 0 0 0 0 0 0 0.25 0"/>
			<feBlend mode="normal" in2="BackgroundImageFix" result="effect1_dropShadow_0_1"/>
			<feBlend mode="normal" in="SourceGraphic" in2="effect1_dropShadow_0_1" result="shape"/>
		</filter>
		<filter id="filter4_d_0_1" x="130.275" y="47.9582" width="22.2371" height="22.4442" filterUnits="userSpaceOnUse" color-interpolation-filters="sRGB">
			<feFlood flood-opacity="0" result="BackgroundImageFix"/>
			<feColorMatrix in="SourceAlpha" type="matrix" values="0 0 0 0 0 0 0 0 0 0 0 0 0 0 0 0 0 0 127 0" result="hardAlpha"/>
			<feOffset dy="2"/>
			<feGaussianBlur stdDeviation="1"/>
			<feComposite in2="hardAlpha" operator="out"/>
			<feColorMatrix type="matrix" values="0 0 0 0 0 0 0 0 0 0 0 0 0 0 0 0 0 0 0.25 0"/>
			<feBlend mode="normal" in2="BackgroundImageFix" result="effect1_dropShadow_0_1"/>
			<feBlend mode="normal" in="SourceGraphic" in2="effect1_dropShadow_0_1" result="shape"/>
		</filter>
		<filter id="filter5_d_0_1" x="116.638" y="63.2921" width="15.9914" height="16.1837" filterUnits="userSpaceOnUse" color-interpolation-filters="sRGB">
			<feFlood flood-opacity="0" result="BackgroundImageFix"/>
			<feColorMatrix in="SourceAlpha" type="matrix" values="0 0 0 0 0 0 0 0 0 0 0 0 0 0 0 0 0 0 127 0" result="hardAlpha"/>
			<feOffset dy="1"/>
			<feGaussianBlur stdDeviation="1"/>
			<feComposite in2="hardAlpha" operator="out"/>
			<feColorMatrix type="matrix" values="0 0 0 0 0 0 0 0 0 0 0 0 0 0 0 0 0 0 0.25 0"/>
			<feBlend mode="normal" in2="BackgroundImageFix" result="effect1_dropShadow_0_1"/>
			<feBlend mode="normal" in="SourceGraphic" in2="effect1_dropShadow_0_1" result="shape"/>
		</filter>
		<filter id="filter6_d_0_1" x="55.8359" y="77.1012" width="402.781" height="113" filterUnits="userSpaceOnUse" color-interpolation-filters="sRGB">
			<feFlood flood-opacity="0" result="BackgroundImageFix"/>
			<feColorMatrix in="SourceAlpha" type="matrix" values="0 0 0 0 0 0 0 0 0 0 0 0 0 0 0 0 0 0 127 0" result="hardAlpha"/>
			<feOffset dy="6"/>
			<feGaussianBlur stdDeviation="1"/>
			<feComposite in2="hardAlpha" operator="out"/>
			<feColorMatrix type="matrix" values="0 0 0 0 0 0 0 0 0 0 0 0 0 0 0 0 0 0 0.25 0"/>
			<feBlend mode="normal" in2="BackgroundImageFix" result="effect1_dropShadow_0_1"/>
			<feBlend mode="normal" in="SourceGraphic" in2="effect1_dropShadow_0_1" result="shape"/>
		</filter>
	</defs>
</svg>
