<?xml version="1.0" encoding="UTF-8" standalone="no"?>
<!DOCTYPE svg PUBLIC "-//W3C//DTD SVG 1.1//EN" "http://www.w3.org/Graphics/SVG/1.1/DTD/svg11.dtd">
<svg viewBox="0 0 294 160" fill="none" xmlns="http://www.w3.org/2000/svg">
	<rect x="0" y="0" width="294" height="160" fill="#2962FF" />
<g filter="url(#filter0_d_0_1)">
<path d="M51.0979 45.8541C51.6966 44.0115 54.3034 44.0115 54.9021 45.8541L61.5315 66.2574C61.7993 67.0814 62.5672 67.6393 63.4336 67.6393H84.8869C86.8243 67.6393 87.6299 70.1186 86.0625 71.2574L68.7064 83.8673C68.0054 84.3765 67.7121 85.2793 67.9799 86.1033L74.6093 106.507C75.208 108.349 73.099 109.881 71.5316 108.743L54.1756 96.1327C53.4746 95.6235 52.5254 95.6235 51.8244 96.1327L34.4684 108.743C32.901 109.881 30.792 108.349 31.3907 106.507L38.0201 86.1033C38.2879 85.2793 37.9946 84.3765 37.2936 83.8673L19.9375 71.2574C18.3701 70.1186 19.1757 67.6393 21.1131 67.6393H42.5664C43.4328 67.6393 44.2007 67.0814 44.4685 66.2574L51.0979 45.8541Z" fill="#FFB300"/>
</g>
<g filter="url(#filter1_d_0_1)">
<path d="M111.142 102C109.862 102 108.774 101.552 107.878 100.656C106.982 99.76 106.534 98.672 106.534 97.392V87.216H101.67L103.014 81.264H106.534V78.768H101.67L103.014 72.816H106.534V61.808C106.534 60.528 106.982 59.44 107.878 58.544C108.774 57.648 109.862 57.2 111.142 57.2H125.67C126.95 57.2 128.038 57.648 128.934 58.544C129.83 59.44 130.278 60.528 130.278 61.808V67.44L124.326 68.784V65.392C124.326 64.752 124.091 64.2187 123.622 63.792C123.195 63.3227 122.662 63.088 122.022 63.088H114.79C114.15 63.088 113.595 63.3227 113.126 63.792C112.699 64.2187 112.486 64.752 112.486 65.392V72.816H122.982L121.638 78.768H112.486V81.264H122.982L121.638 87.216H112.486V93.744C112.486 94.384 112.699 94.9387 113.126 95.408C113.595 95.8347 114.15 96.048 114.79 96.048H122.022C122.662 96.048 123.195 95.8347 123.622 95.408C124.091 94.9387 124.326 94.384 124.326 93.744V91.76L130.278 90.416V97.392C130.278 98.672 129.83 99.76 128.934 100.656C128.038 101.552 126.95 102 125.67 102H111.142ZM140.045 102C138.722 102 137.613 101.552 136.717 100.656C135.821 99.76 135.373 98.6507 135.373 97.328V70H141.389V93.68C141.389 94.2773 141.623 94.8107 142.093 95.28C142.562 95.7493 143.095 95.984 143.693 95.984H147.405V70H153.421V102H140.045ZM158.56 102V70H171.936C173.216 70 174.304 70.4693 175.2 71.408C176.139 72.304 176.608 73.392 176.608 74.672V81.648L170.592 80.304V78.384C170.592 77.744 170.357 77.1893 169.888 76.72C169.461 76.2507 168.928 76.016 168.288 76.016H164.576V102H158.56ZM183.994 102C182.671 102 181.562 101.552 180.666 100.656C179.77 99.7173 179.322 98.608 179.322 97.328V74.672C179.322 73.392 179.77 72.304 180.666 71.408C181.562 70.4693 182.671 70 183.994 70H192.698C193.978 70 195.066 70.4693 195.962 71.408C196.858 72.304 197.306 73.392 197.306 74.672V97.328C197.306 98.608 196.858 99.7173 195.962 100.656C195.066 101.552 193.978 102 192.698 102H183.994ZM187.642 95.984H188.986C189.626 95.984 190.181 95.7707 190.65 95.344C191.119 94.8747 191.354 94.32 191.354 93.68V78.32C191.354 77.68 191.119 77.1467 190.65 76.72C190.181 76.2507 189.626 76.016 188.986 76.016H187.642C187.002 76.016 186.447 76.2507 185.978 76.72C185.551 77.1467 185.338 77.68 185.338 78.32V93.68C185.338 94.32 185.551 94.8747 185.978 95.344C186.447 95.7707 187.002 95.984 187.642 95.984ZM208.514 102C207.234 102 206.146 101.552 205.25 100.656C204.354 99.76 203.906 98.672 203.906 97.392V61.744C203.906 60.5067 204.354 59.44 205.25 58.544C206.146 57.648 207.234 57.2 208.514 57.2H223.042C224.322 57.2 225.41 57.648 226.306 58.544C227.202 59.44 227.65 60.5067 227.65 61.744V71.728L221.698 70.384V65.392C221.698 64.752 221.463 64.2187 220.994 63.792C220.567 63.3227 220.034 63.088 219.394 63.088H212.162C211.522 63.088 210.967 63.3227 210.498 63.792C210.071 64.2187 209.858 64.752 209.858 65.392V93.744C209.858 94.384 210.071 94.9387 210.498 95.408C210.967 95.8347 211.522 96.048 212.162 96.048H219.394C220.034 96.048 220.567 95.8347 220.994 95.408C221.463 94.9387 221.698 94.384 221.698 93.744V87.536H215.81L217.154 81.584H227.65V97.392C227.65 98.672 227.202 99.76 226.306 100.656C225.41 101.552 224.322 102 223.042 102H208.514ZM236.295 102C235.015 102 233.905 101.552 232.967 100.656C232.071 99.7173 231.623 98.608 231.623 97.328V74.608C231.623 73.328 232.071 72.24 232.967 71.344C233.905 70.448 235.015 70 236.295 70H244.999C246.321 70 247.431 70.448 248.327 71.344C249.223 72.24 249.671 73.328 249.671 74.608V84.336C249.671 85.616 249.223 86.7253 248.327 87.664C247.431 88.56 246.321 89.008 244.999 89.008H237.639V93.68C237.639 94.32 237.852 94.8747 238.279 95.344C238.748 95.7707 239.324 95.984 240.007 95.984H248.327L249.671 102H236.295ZM237.639 82.992H241.351C241.991 82.992 242.524 82.7787 242.951 82.352C243.42 81.8827 243.655 81.328 243.655 80.688V78.32C243.655 77.68 243.42 77.1467 242.951 76.72C242.524 76.2507 241.991 76.016 241.351 76.016H240.007C239.324 76.016 238.748 76.2507 238.279 76.72C237.852 77.1467 237.639 77.68 237.639 78.32V82.992ZM253.769 102V70H267.145C268.382 70 269.47 70.448 270.409 71.344C271.347 72.24 271.817 73.328 271.817 74.608V102H265.801V78.32C265.801 77.6373 265.566 77.0827 265.097 76.656C264.627 76.2293 264.094 76.016 263.497 76.016H259.785V102H253.769Z" fill="white"/>
</g>
<defs>
<filter id="filter0_d_0_1" x="17.1093" y="44.4721" width="71.7814" height="72.6615" filterUnits="userSpaceOnUse" color-interpolation-filters="sRGB">
<feFlood flood-opacity="0" result="BackgroundImageFix"/>
<feColorMatrix in="SourceAlpha" type="matrix" values="0 0 0 0 0 0 0 0 0 0 0 0 0 0 0 0 0 0 127 0" result="hardAlpha"/>
<feOffset dy="6"/>
<feGaussianBlur stdDeviation="1"/>
<feComposite in2="hardAlpha" operator="out"/>
<feColorMatrix type="matrix" values="0 0 0 0 0 0 0 0 0 0 0 0 0 0 0 0 0 0 0.25 0"/>
<feBlend mode="normal" in2="BackgroundImageFix" result="effect1_dropShadow_0_1"/>
<feBlend mode="normal" in="SourceGraphic" in2="effect1_dropShadow_0_1" result="shape"/>
</filter>
<filter id="filter1_d_0_1" x="99.67" y="57.2" width="174.146" height="52.8" filterUnits="userSpaceOnUse" color-interpolation-filters="sRGB">
<feFlood flood-opacity="0" result="BackgroundImageFix"/>
<feColorMatrix in="SourceAlpha" type="matrix" values="0 0 0 0 0 0 0 0 0 0 0 0 0 0 0 0 0 0 127 0" result="hardAlpha"/>
<feOffset dy="6"/>
<feGaussianBlur stdDeviation="1"/>
<feComposite in2="hardAlpha" operator="out"/>
<feColorMatrix type="matrix" values="0 0 0 0 0 0 0 0 0 0 0 0 0 0 0 0 0 0 0.25 0"/>
<feBlend mode="normal" in2="BackgroundImageFix" result="effect1_dropShadow_0_1"/>
<feBlend mode="normal" in="SourceGraphic" in2="effect1_dropShadow_0_1" result="shape"/>
</filter>
</defs>
</svg>
